<svg xmlns="http://www.w3.org/2000/svg" xmlns:xlink="http://www.w3.org/1999/xlink" width="1351" height="590" version="1.1" viewBox="0 0 1351 590"><title>Confetti</title><desc>Created with Sketch.</desc><g id="Landing" fill="none" fill-rule="evenodd" stroke="none" stroke-width="1" opacity=".32"><g id="Landing/Color---Desktop-HD" transform="translate(-52.000000, -170.000000)"><g id="Confetti" transform="translate(48.000000, 160.000000)"><g id="Experience/24x24" opacity=".77" transform="translate(1158.984853, 25.500294) rotate(-121.000000) translate(-1158.984853, -25.500294) translate(1147.984853, 14.500294)"><g id="-g-Experience"><g><polygon id="Shape" fill="#FFA623" points="14.667 14.667 22 11 14.667 7.333 11 0 7.333 7.333 0 11 7.333 14.667 11 22"/><polygon id="Shape" fill="#FFF" points="4.125 11 8.708 8.708 11 11" opacity=".25"/><polygon id="Shape" fill="#FFF" points="11 17.875 8.708 13.292 11 11" opacity=".25"/><polygon id="Shape" fill="#FFF" points="17.875 11 13.292 13.292 11 11" opacity=".25"/><polygon id="Shape" fill="#FFF" points="11 4.125 13.292 8.708 11 11" opacity=".25"/><polygon id="Shape" fill="#BF7D1A" points="17.875 11 13.292 8.708 11 11" opacity=".25"/><polygon id="Shape" fill="#BF7D1A" points="11 17.875 13.292 13.292 11 11" opacity=".5"/><polygon id="Shape" fill="#FFF" points="4.125 11 8.708 13.292 11 11" opacity=".5"/><polygon id="Shape" fill="#FFF" points="11 4.125 8.708 8.708 11 11" opacity=".5"/><polygon id="Shape" fill="#FFF" points="9.9 12.1 7.792 11 9.9 9.9 11 7.792 12.1 9.9 14.208 11 12.1 12.1 11 14.208" opacity=".5"/></g></g></g><g id="Experience/24x24" opacity=".84" transform="translate(1064.122301, 214.445289) rotate(-47.000000) translate(-1064.122301, -214.445289) translate(1051.622301, 201.945289)"><g id="-g-Experience"><g><polygon id="Shape" fill="#FFA623" points="16.667 16.667 25 12.5 16.667 8.333 12.5 0 8.333 8.333 0 12.5 8.333 16.667 12.5 25"/><polygon id="Shape" fill="#FFF" points="4.688 12.5 9.896 9.896 12.5 12.5" opacity=".25"/><polygon id="Shape" fill="#FFF" points="12.5 20.313 9.896 15.104 12.5 12.5" opacity=".25"/><polygon id="Shape" fill="#FFF" points="20.313 12.5 15.104 15.104 12.5 12.5" opacity=".25"/><polygon id="Shape" fill="#FFF" points="12.5 4.688 15.104 9.896 12.5 12.5" opacity=".25"/><polygon id="Shape" fill="#BF7D1A" points="20.313 12.5 15.104 9.896 12.5 12.5" opacity=".25"/><polygon id="Shape" fill="#BF7D1A" points="12.5 20.313 15.104 15.104 12.5 12.5" opacity=".5"/><polygon id="Shape" fill="#FFF" points="4.688 12.5 9.896 15.104 12.5 12.5" opacity=".5"/><polygon id="Shape" fill="#FFF" points="12.5 4.688 9.896 9.896 12.5 12.5" opacity=".5"/><polygon id="Shape" fill="#FFF" points="11.25 13.75 8.854 12.5 11.25 11.25 12.5 8.854 13.75 11.25 16.146 12.5 13.75 13.75 12.5 16.146" opacity=".5"/></g></g></g><g id="Gem/24-x-24" opacity=".84" transform="translate(1183.470270, 233.983795) rotate(-204.000000) translate(-1183.470270, -233.983795) translate(1172.470270, 222.983795)"><g id="-g-Gem"><g transform="translate(0.000000, 1.833333)"><polygon id="Shape" fill="#24CC8F" points="0 6.417 4.583 0 17.417 0 22 6.417 11 18.333"/><polygon id="Shape" fill="#FFF" points="6.417 6.233 5.5 1.833 11 1.833" opacity=".25"/><polygon id="Shape" fill="#FFF" points="15.583 6.233 16.5 1.833 11 1.833" opacity=".25"/><polygon id="Shape" fill="#FFF" points="6.417 6.233 11 1.833 15.583 6.233" opacity=".5"/><polygon id="Shape" fill="#FFF" points="2.383 6.233 5.5 1.833 6.417 6.233" opacity=".5"/><polygon id="Shape" fill="#1B996B" points="19.617 6.233 16.5 1.833 15.583 6.233" opacity=".35"/><polygon id="Shape" fill="#1B996B" points="2.383 6.233 6.417 6.233 11 15.675" opacity=".35"/><polygon id="Shape" fill="#FFF" points="19.617 6.233 15.583 6.233 11 15.675" opacity=".5"/><polygon id="Shape" fill="#FFF" points="6.417 6.233 15.583 6.233 11 15.675" opacity=".25"/></g></g></g><g id="Gem/24-x-24" opacity=".85" transform="translate(1093.606810, 588.227979) rotate(-87.000000) translate(-1093.606810, -588.227979) translate(1081.606810, 576.227979)"><g id="-g-Gem"><g transform="translate(0.000000, 2.000000)"><polygon id="Shape" fill="#24CC8F" points="0 7 5 0 19 0 24 7 12 20"/><polygon id="Shape" fill="#FFF" points="7 6.8 6 2 12 2" opacity=".25"/><polygon id="Shape" fill="#FFF" points="17 6.8 18 2 12 2" opacity=".25"/><polygon id="Shape" fill="#FFF" points="7 6.8 12 2 17 6.8" opacity=".5"/><polygon id="Shape" fill="#FFF" points="2.6 6.8 6 2 7 6.8" opacity=".5"/><polygon id="Shape" fill="#1B996B" points="21.4 6.8 18 2 17 6.8" opacity=".35"/><polygon id="Shape" fill="#1B996B" points="2.6 6.8 7 6.8 12 17.1" opacity=".35"/><polygon id="Shape" fill="#FFF" points="21.4 6.8 17 6.8 12 17.1" opacity=".5"/><polygon id="Shape" fill="#FFF" points="7 6.8 17 6.8 12 17.1" opacity=".25"/></g></g></g><g id="Gem/24-x-24" opacity=".91" transform="translate(1289.200401, 189.200401) rotate(-298.000000) translate(-1289.200401, -189.200401) translate(1278.700401, 178.700401)"><g id="-g-Gem"><g transform="translate(0.000000, 1.750000)"><polygon id="Shape" fill="#24CC8F" points="0 6.125 4.375 0 16.625 0 21 6.125 10.5 17.5"/><polygon id="Shape" fill="#FFF" points="6.125 5.95 5.25 1.75 10.5 1.75" opacity=".25"/><polygon id="Shape" fill="#FFF" points="14.875 5.95 15.75 1.75 10.5 1.75" opacity=".25"/><polygon id="Shape" fill="#FFF" points="6.125 5.95 10.5 1.75 14.875 5.95" opacity=".5"/><polygon id="Shape" fill="#FFF" points="2.275 5.95 5.25 1.75 6.125 5.95" opacity=".5"/><polygon id="Shape" fill="#1B996B" points="18.725 5.95 15.75 1.75 14.875 5.95" opacity=".35"/><polygon id="Shape" fill="#1B996B" points="2.275 5.95 6.125 5.95 10.5 14.963" opacity=".35"/><polygon id="Shape" fill="#FFF" points="18.725 5.95 14.875 5.95 10.5 14.963" opacity=".5"/><polygon id="Shape" fill="#FFF" points="6.125 5.95 14.875 5.95 10.5 14.963" opacity=".25"/></g></g></g><g id="Gem/24-x-24" opacity=".93" transform="translate(420.331965, 587.039435) rotate(-134.000000) translate(-420.331965, -587.039435) translate(409.331965, 576.039435)"><g id="-g-Gem"><g transform="translate(0.000000, 1.833333)"><polygon id="Shape" fill="#24CC8F" points="0 6.417 4.583 0 17.417 0 22 6.417 11 18.333"/><polygon id="Shape" fill="#FFF" points="6.417 6.233 5.5 1.833 11 1.833" opacity=".25"/><polygon id="Shape" fill="#FFF" points="15.583 6.233 16.5 1.833 11 1.833" opacity=".25"/><polygon id="Shape" fill="#FFF" points="6.417 6.233 11 1.833 15.583 6.233" opacity=".5"/><polygon id="Shape" fill="#FFF" points="2.383 6.233 5.5 1.833 6.417 6.233" opacity=".5"/><polygon id="Shape" fill="#1B996B" points="19.617 6.233 16.5 1.833 15.583 6.233" opacity=".35"/><polygon id="Shape" fill="#1B996B" points="2.383 6.233 6.417 6.233 11 15.675" opacity=".35"/><polygon id="Shape" fill="#FFF" points="19.617 6.233 15.583 6.233 11 15.675" opacity=".5"/><polygon id="Shape" fill="#FFF" points="6.417 6.233 15.583 6.233 11 15.675" opacity=".25"/></g></g></g><g id="Gem/24-x-24" opacity=".7" transform="translate(648.690529, 194.690529) rotate(-141.000000) translate(-648.690529, -194.690529) translate(634.690529, 180.690529)"><g id="-g-Gem"><g transform="translate(0.000000, 2.333333)"><polygon id="Shape" fill="#24CC8F" points="0 8.167 5.833 0 22.167 0 28 8.167 14 23.333"/><polygon id="Shape" fill="#FFF" points="8.167 7.933 7 2.333 14 2.333" opacity=".25"/><polygon id="Shape" fill="#FFF" points="19.833 7.933 21 2.333 14 2.333" opacity=".25"/><polygon id="Shape" fill="#FFF" points="8.167 7.933 14 2.333 19.833 7.933" opacity=".5"/><polygon id="Shape" fill="#FFF" points="3.033 7.933 7 2.333 8.167 7.933" opacity=".5"/><polygon id="Shape" fill="#1B996B" points="24.967 7.933 21 2.333 19.833 7.933" opacity=".35"/><polygon id="Shape" fill="#1B996B" points="3.033 7.933 8.167 7.933 14 19.95" opacity=".35"/><polygon id="Shape" fill="#FFF" points="24.967 7.933 19.833 7.933 14 19.95" opacity=".5"/><polygon id="Shape" fill="#FFF" points="8.167 7.933 19.833 7.933 14 19.95" opacity=".25"/></g></g></g><g id="Gold/24-x-24" opacity=".94" transform="translate(1320.097067, 557.423456) rotate(-112.000000) translate(-1320.097067, -557.423456) translate(1307.097067, 544.423456)"><g id="-g-Gold"><g><circle id="Oval" cx="13" cy="13" r="13" fill="#FFA623"/><path id="Shape" fill="#FFF" d="M6.825,19.175 C3.46666667,15.8166667 3.46666667,10.2916667 6.825,6.93333333 C10.1833333,3.575 15.7083333,3.575 19.0666667,6.93333333" opacity=".5"/><path id="Shape" fill="#FFF" d="M19.175,6.825 C22.5333333,10.1833333 22.5333333,15.7083333 19.175,19.0666667 C15.8166667,22.425 10.2916667,22.425 6.93333333,19.0666667" opacity=".25"/><path id="Shape" fill="#BF7D1A" d="M13,2.16666667 C7.04166667,2.16666667 2.16666667,7.04166667 2.16666667,13 C2.16666667,18.9583333 7.04166667,23.8333333 13,23.8333333 C18.9583333,23.8333333 23.8333333,18.9583333 23.8333333,13 C23.8333333,7.04166667 18.9583333,2.16666667 13,2.16666667 L13,2.16666667 Z M13,21.6666667 C8.23333333,21.6666667 4.33333333,17.7666667 4.33333333,13 C4.33333333,8.23333333 8.23333333,4.33333333 13,4.33333333 C17.7666667,4.33333333 21.6666667,8.23333333 21.6666667,13 C21.6666667,17.7666667 17.7666667,21.6666667 13,21.6666667 L13,21.6666667 Z" opacity=".5"/><polygon id="Shape" fill="#BF7D1A" points="14.083 9.75 14.083 11.917 11.917 11.917 11.917 9.75 9.75 9.75 9.75 16.25 11.917 16.25 11.917 14.083 14.083 14.083 14.083 16.25 16.25 16.25 16.25 9.75" opacity=".75"/></g></g></g><g id="Gold/24-x-24" opacity=".79" transform="translate(769.540670, 357.964288) rotate(-199.000000) translate(-769.540670, -357.964288) translate(757.040670, 345.464288)"><g id="-g-Gold"><g><circle id="Oval" cx="12.5" cy="12.5" r="12.5" fill="#FFA623"/><path id="Shape" fill="#FFF" d="M6.5625,18.4375 C3.33333333,15.2083333 3.33333333,9.89583333 6.5625,6.66666667 C9.79166667,3.4375 15.1041667,3.4375 18.3333333,6.66666667" opacity=".5"/><path id="Shape" fill="#FFF" d="M18.4375,6.5625 C21.6666667,9.79166667 21.6666667,15.1041667 18.4375,18.3333333 C15.2083333,21.5625 9.89583333,21.5625 6.66666667,18.3333333" opacity=".25"/><path id="Shape" fill="#BF7D1A" d="M12.5,2.08333333 C6.77083333,2.08333333 2.08333333,6.77083333 2.08333333,12.5 C2.08333333,18.2291667 6.77083333,22.9166667 12.5,22.9166667 C18.2291667,22.9166667 22.9166667,18.2291667 22.9166667,12.5 C22.9166667,6.77083333 18.2291667,2.08333333 12.5,2.08333333 L12.5,2.08333333 Z M12.5,20.8333333 C7.91666667,20.8333333 4.16666667,17.0833333 4.16666667,12.5 C4.16666667,7.91666667 7.91666667,4.16666667 12.5,4.16666667 C17.0833333,4.16666667 20.8333333,7.91666667 20.8333333,12.5 C20.8333333,17.0833333 17.0833333,20.8333333 12.5,20.8333333 L12.5,20.8333333 Z" opacity=".5"/><polygon id="Shape" fill="#BF7D1A" points="13.542 9.375 13.542 11.458 11.458 11.458 11.458 9.375 9.375 9.375 9.375 15.625 11.458 15.625 11.458 13.542 13.542 13.542 13.542 15.625 15.625 15.625 15.625 9.375" opacity=".75"/></g></g></g><g id="Gold/24-x-24" opacity=".82" transform="translate(747.219445, 264.574567) rotate(-321.000000) translate(-747.219445, -264.574567) translate(737.719445, 255.074567)"><g id="-g-Gold"><g><circle id="Oval" cx="9.5" cy="9.5" r="9.5" fill="#FFA623"/><path id="Shape" fill="#FFF" d="M4.9875,14.0125 C2.53333333,11.5583333 2.53333333,7.52083333 4.9875,5.06666667 C7.44166667,2.6125 11.4791667,2.6125 13.9333333,5.06666667" opacity=".5"/><path id="Shape" fill="#FFF" d="M14.0125,4.9875 C16.4666667,7.44166667 16.4666667,11.4791667 14.0125,13.9333333 C11.5583333,16.3875 7.52083333,16.3875 5.06666667,13.9333333" opacity=".25"/><path id="Shape" fill="#BF7D1A" d="M9.5,1.58333333 C5.14583333,1.58333333 1.58333333,5.14583333 1.58333333,9.5 C1.58333333,13.8541667 5.14583333,17.4166667 9.5,17.4166667 C13.8541667,17.4166667 17.4166667,13.8541667 17.4166667,9.5 C17.4166667,5.14583333 13.8541667,1.58333333 9.5,1.58333333 L9.5,1.58333333 Z M9.5,15.8333333 C6.01666667,15.8333333 3.16666667,12.9833333 3.16666667,9.5 C3.16666667,6.01666667 6.01666667,3.16666667 9.5,3.16666667 C12.9833333,3.16666667 15.8333333,6.01666667 15.8333333,9.5 C15.8333333,12.9833333 12.9833333,15.8333333 9.5,15.8333333 L9.5,15.8333333 Z" opacity=".5"/><polygon id="Shape" fill="#BF7D1A" points="10.292 7.125 10.292 8.708 8.708 8.708 8.708 7.125 7.125 7.125 7.125 11.875 8.708 11.875 8.708 10.292 10.292 10.292 10.292 11.875 11.875 11.875 11.875 7.125" opacity=".75"/></g></g></g><g id="Gold/24-x-24" opacity=".84" transform="translate(31.534556, 567.534556) rotate(-35.000000) translate(-31.534556, -567.534556) translate(22.534556, 558.534556)"><g id="-g-Gold"><g><circle id="Oval" cx="9" cy="9" r="9" fill="#FFA623"/><path id="Shape" fill="#FFF" d="M4.725,13.275 C2.4,10.95 2.4,7.125 4.725,4.8 C7.05,2.475 10.875,2.475 13.2,4.8" opacity=".5"/><path id="Shape" fill="#FFF" d="M13.275,4.725 C15.6,7.05 15.6,10.875 13.275,13.2 C10.95,15.525 7.125,15.525 4.8,13.2" opacity=".25"/><path id="Shape" fill="#BF7D1A" d="M9,1.5 C4.875,1.5 1.5,4.875 1.5,9 C1.5,13.125 4.875,16.5 9,16.5 C13.125,16.5 16.5,13.125 16.5,9 C16.5,4.875 13.125,1.5 9,1.5 L9,1.5 Z M9,15 C5.7,15 3,12.3 3,9 C3,5.7 5.7,3 9,3 C12.3,3 15,5.7 15,9 C15,12.3 12.3,15 9,15 L9,15 Z" opacity=".5"/><polygon id="Shape" fill="#BF7D1A" points="9.75 6.75 9.75 8.25 8.25 8.25 8.25 6.75 6.75 6.75 6.75 11.25 8.25 11.25 8.25 9.75 9.75 9.75 9.75 11.25 11.25 11.25 11.25 6.75" opacity=".75"/></g></g></g><g id="Gold/24-x-24" opacity=".97" transform="translate(179.075324, 545.075324) rotate(-251.000000) translate(-179.075324, -545.075324) translate(169.575324, 535.575324)"><g id="-g-Gold"><g><circle id="Oval" cx="9.5" cy="9.5" r="9.5" fill="#FFA623"/><path id="Shape" fill="#FFF" d="M4.9875,14.0125 C2.53333333,11.5583333 2.53333333,7.52083333 4.9875,5.06666667 C7.44166667,2.6125 11.4791667,2.6125 13.9333333,5.06666667" opacity=".5"/><path id="Shape" fill="#FFF" d="M14.0125,4.9875 C16.4666667,7.44166667 16.4666667,11.4791667 14.0125,13.9333333 C11.5583333,16.3875 7.52083333,16.3875 5.06666667,13.9333333" opacity=".25"/><path id="Shape" fill="#BF7D1A" d="M9.5,1.58333333 C5.14583333,1.58333333 1.58333333,5.14583333 1.58333333,9.5 C1.58333333,13.8541667 5.14583333,17.4166667 9.5,17.4166667 C13.8541667,17.4166667 17.4166667,13.8541667 17.4166667,9.5 C17.4166667,5.14583333 13.8541667,1.58333333 9.5,1.58333333 L9.5,1.58333333 Z M9.5,15.8333333 C6.01666667,15.8333333 3.16666667,12.9833333 3.16666667,9.5 C3.16666667,6.01666667 6.01666667,3.16666667 9.5,3.16666667 C12.9833333,3.16666667 15.8333333,6.01666667 15.8333333,9.5 C15.8333333,12.9833333 12.9833333,15.8333333 9.5,15.8333333 L9.5,15.8333333 Z" opacity=".5"/><polygon id="Shape" fill="#BF7D1A" points="10.292 7.125 10.292 8.708 8.708 8.708 8.708 7.125 7.125 7.125 7.125 11.875 8.708 11.875 8.708 10.292 10.292 10.292 10.292 11.875 11.875 11.875 11.875 7.125" opacity=".75"/></g></g></g><g id="Gold/24-x-24" opacity=".94" transform="translate(45.977583, 182.376953) rotate(-94.000000) translate(-45.977583, -182.376953) translate(31.977583, 168.376953)"><g id="-g-Gold"><g><circle id="Oval" cx="14" cy="14" r="14" fill="#FFA623"/><path id="Shape" fill="#FFF" d="M7.35,20.65 C3.73333333,17.0333333 3.73333333,11.0833333 7.35,7.46666667 C10.9666667,3.85 16.9166667,3.85 20.5333333,7.46666667" opacity=".5"/><path id="Shape" fill="#FFF" d="M20.65,7.35 C24.2666667,10.9666667 24.2666667,16.9166667 20.65,20.5333333 C17.0333333,24.15 11.0833333,24.15 7.46666667,20.5333333" opacity=".25"/><path id="Shape" fill="#BF7D1A" d="M14,2.33333333 C7.58333333,2.33333333 2.33333333,7.58333333 2.33333333,14 C2.33333333,20.4166667 7.58333333,25.6666667 14,25.6666667 C20.4166667,25.6666667 25.6666667,20.4166667 25.6666667,14 C25.6666667,7.58333333 20.4166667,2.33333333 14,2.33333333 L14,2.33333333 Z M14,23.3333333 C8.86666667,23.3333333 4.66666667,19.1333333 4.66666667,14 C4.66666667,8.86666667 8.86666667,4.66666667 14,4.66666667 C19.1333333,4.66666667 23.3333333,8.86666667 23.3333333,14 C23.3333333,19.1333333 19.1333333,23.3333333 14,23.3333333 L14,23.3333333 Z" opacity=".5"/><polygon id="Shape" fill="#BF7D1A" points="15.167 10.5 15.167 12.833 12.833 12.833 12.833 10.5 10.5 10.5 10.5 17.5 12.833 17.5 12.833 15.167 15.167 15.167 15.167 17.5 17.5 17.5 17.5 10.5" opacity=".75"/></g></g></g><g id="Health/24x24" opacity=".89" transform="translate(701.261536, 63.889629) rotate(-172.000000) translate(-701.261536, -63.889629) translate(691.761536, 54.389629)"><g id="-g-Health"><g transform="translate(1.583333, 1.583333)"><polygon id="Shape" fill="#F74E52" points="0 1.979 3.299 0 7.917 2.507 12.535 0 15.833 1.979 15.833 7.917 12.535 12.535 7.917 15.833 3.299 12.535 0 7.917"/><polygon id="Shape" fill="#FF6165" points="4.222 11.611 1.319 7.521 1.319 2.705 3.299 1.517 7.917 4.024 12.535 1.517 14.514 2.705 14.514 7.521 11.611 11.611 7.917 14.184"/><polygon id="Shape" fill="#FFF" points="7.917 9.566 11.611 11.611 7.917 14.184" opacity=".5"/><polygon id="Shape" fill="#B52428" points="7.917 9.566 4.222 11.611 7.917 14.184" opacity=".35"/><polygon id="Shape" fill="#FFF" points="4.222 11.611 1.319 7.521 7.917 9.566" opacity=".25"/><polygon id="Shape" fill="#B52428" points="11.611 11.611 14.514 7.521 7.917 9.566" opacity=".5"/><polygon id="Shape" fill="#B52428" points="7.917 9.566 12.535 1.517 14.514 2.705 14.514 7.521" opacity=".35"/><polygon id="Shape" fill="#B52428" points="7.917 9.566 3.299 1.517 1.319 2.705 1.319 7.521" opacity=".5"/><polygon id="Shape" fill="#FFF" points="7.917 9.566 3.299 1.517 7.917 4.024" opacity=".5"/><polygon id="Shape" fill="#FFF" points="7.917 9.566 12.535 1.517 7.917 4.024" opacity=".25"/><polygon id="Shape" fill="#FFF" points="5.674 10.16 3.299 6.861 3.299 3.826 3.365 3.826 7.917 6.267 12.469 3.826 12.535 3.826 12.535 6.861 10.16 10.16 7.917 11.809" opacity=".5"/></g></g></g><g id="Health/24x24" opacity=".97" transform="translate(701.194563, 443.194563) rotate(-55.000000) translate(-701.194563, -443.194563) translate(686.694563, 428.694563)"><g id="-g-Health"><g transform="translate(2.416667, 2.416667)"><polygon id="Shape" fill="#F74E52" points="0 3.021 5.035 0 12.083 3.826 19.132 0 24.167 3.021 24.167 12.083 19.132 19.132 12.083 24.167 5.035 19.132 0 12.083"/><polygon id="Shape" fill="#FF6165" points="6.444 17.722 2.014 11.479 2.014 4.128 5.035 2.316 12.083 6.142 19.132 2.316 22.153 4.128 22.153 11.479 17.722 17.722 12.083 21.649"/><polygon id="Shape" fill="#FFF" points="12.083 14.601 17.722 17.722 12.083 21.649" opacity=".5"/><polygon id="Shape" fill="#B52428" points="12.083 14.601 6.444 17.722 12.083 21.649" opacity=".35"/><polygon id="Shape" fill="#FFF" points="6.444 17.722 2.014 11.479 12.083 14.601" opacity=".25"/><polygon id="Shape" fill="#B52428" points="17.722 17.722 22.153 11.479 12.083 14.601" opacity=".5"/><polygon id="Shape" fill="#B52428" points="12.083 14.601 19.132 2.316 22.153 4.128 22.153 11.479" opacity=".35"/><polygon id="Shape" fill="#B52428" points="12.083 14.601 5.035 2.316 2.014 4.128 2.014 11.479" opacity=".5"/><polygon id="Shape" fill="#FFF" points="12.083 14.601 5.035 2.316 12.083 6.142" opacity=".5"/><polygon id="Shape" fill="#FFF" points="12.083 14.601 19.132 2.316 12.083 6.142" opacity=".25"/><polygon id="Shape" fill="#FFF" points="8.66 15.507 5.035 10.472 5.035 5.84 5.135 5.84 12.083 9.566 19.031 5.84 19.132 5.84 19.132 10.472 15.507 15.507 12.083 18.024" opacity=".5"/></g></g></g><g id="Health/24x24" opacity=".8" transform="translate(600.669439, 59.612767) rotate(-181.000000) translate(-600.669439, -59.612767) translate(586.669439, 45.612767)"><g id="-g-Health"><g transform="translate(2.333333, 2.333333)"><polygon id="Shape" fill="#F74E52" points="0 2.917 4.861 0 11.667 3.694 18.472 0 23.333 2.917 23.333 11.667 18.472 18.472 11.667 23.333 4.861 18.472 0 11.667"/><polygon id="Shape" fill="#FF6165" points="6.222 17.111 1.944 11.083 1.944 3.986 4.861 2.236 11.667 5.931 18.472 2.236 21.389 3.986 21.389 11.083 17.111 17.111 11.667 20.903"/><polygon id="Shape" fill="#FFF" points="11.667 14.097 17.111 17.111 11.667 20.903" opacity=".5"/><polygon id="Shape" fill="#B52428" points="11.667 14.097 6.222 17.111 11.667 20.903" opacity=".35"/><polygon id="Shape" fill="#FFF" points="6.222 17.111 1.944 11.083 11.667 14.097" opacity=".25"/><polygon id="Shape" fill="#B52428" points="17.111 17.111 21.389 11.083 11.667 14.097" opacity=".5"/><polygon id="Shape" fill="#B52428" points="11.667 14.097 18.472 2.236 21.389 3.986 21.389 11.083" opacity=".35"/><polygon id="Shape" fill="#B52428" points="11.667 14.097 4.861 2.236 1.944 3.986 1.944 11.083" opacity=".5"/><polygon id="Shape" fill="#FFF" points="11.667 14.097 4.861 2.236 11.667 5.931" opacity=".5"/><polygon id="Shape" fill="#FFF" points="11.667 14.097 18.472 2.236 11.667 5.931" opacity=".25"/><polygon id="Shape" fill="#FFF" points="8.361 14.972 4.861 10.111 4.861 5.639 4.958 5.639 11.667 9.236 18.375 5.639 18.472 5.639 18.472 10.111 14.972 14.972 11.667 17.403" opacity=".5"/></g></g></g><g id="Health/24x24" opacity=".93" transform="translate(15.270535, 389.270535) rotate(-124.000000) translate(-15.270535, -389.270535) translate(4.270535, 378.270535)"><g id="-g-Health"><g transform="translate(1.833333, 1.833333)"><polygon id="Shape" fill="#F74E52" points="0 2.292 3.819 0 9.167 2.903 14.514 0 18.333 2.292 18.333 9.167 14.514 14.514 9.167 18.333 3.819 14.514 0 9.167"/><polygon id="Shape" fill="#FF6165" points="4.889 13.444 1.528 8.708 1.528 3.132 3.819 1.757 9.167 4.66 14.514 1.757 16.806 3.132 16.806 8.708 13.444 13.444 9.167 16.424"/><polygon id="Shape" fill="#FFF" points="9.167 11.076 13.444 13.444 9.167 16.424" opacity=".5"/><polygon id="Shape" fill="#B52428" points="9.167 11.076 4.889 13.444 9.167 16.424" opacity=".35"/><polygon id="Shape" fill="#FFF" points="4.889 13.444 1.528 8.708 9.167 11.076" opacity=".25"/><polygon id="Shape" fill="#B52428" points="13.444 13.444 16.806 8.708 9.167 11.076" opacity=".5"/><polygon id="Shape" fill="#B52428" points="9.167 11.076 14.514 1.757 16.806 3.132 16.806 8.708" opacity=".35"/><polygon id="Shape" fill="#B52428" points="9.167 11.076 3.819 1.757 1.528 3.132 1.528 8.708" opacity=".5"/><polygon id="Shape" fill="#FFF" points="9.167 11.076 3.819 1.757 9.167 4.66" opacity=".5"/><polygon id="Shape" fill="#FFF" points="9.167 11.076 14.514 1.757 9.167 4.66" opacity=".25"/><polygon id="Shape" fill="#FFF" points="6.569 11.764 3.819 7.944 3.819 4.431 3.896 4.431 9.167 7.257 14.438 4.431 14.514 4.431 14.514 7.944 11.764 11.764 9.167 13.674" opacity=".5"/></g></g></g><g id="Health/24x24" opacity=".82" transform="translate(74.936016, 19.922290) rotate(-138.000000) translate(-74.936016, -19.922290) translate(61.436016, 6.422290)"><g id="-g-Health"><g transform="translate(2.250000, 2.250000)"><polygon id="Shape" fill="#F74E52" points="0 2.813 4.688 0 11.25 3.563 17.813 0 22.5 2.813 22.5 11.25 17.813 17.813 11.25 22.5 4.688 17.813 0 11.25"/><polygon id="Shape" fill="#FF6165" points="6 16.5 1.875 10.688 1.875 3.844 4.688 2.156 11.25 5.719 17.813 2.156 20.625 3.844 20.625 10.688 16.5 16.5 11.25 20.156"/><polygon id="Shape" fill="#FFF" points="11.25 13.594 16.5 16.5 11.25 20.156" opacity=".5"/><polygon id="Shape" fill="#B52428" points="11.25 13.594 6 16.5 11.25 20.156" opacity=".35"/><polygon id="Shape" fill="#FFF" points="6 16.5 1.875 10.688 11.25 13.594" opacity=".25"/><polygon id="Shape" fill="#B52428" points="16.5 16.5 20.625 10.688 11.25 13.594" opacity=".5"/><polygon id="Shape" fill="#B52428" points="11.25 13.594 17.813 2.156 20.625 3.844 20.625 10.688" opacity=".35"/><polygon id="Shape" fill="#B52428" points="11.25 13.594 4.688 2.156 1.875 3.844 1.875 10.688" opacity=".5"/><polygon id="Shape" fill="#FFF" points="11.25 13.594 4.688 2.156 11.25 5.719" opacity=".5"/><polygon id="Shape" fill="#FFF" points="11.25 13.594 17.813 2.156 11.25 5.719" opacity=".25"/><polygon id="Shape" fill="#FFF" points="8.063 14.438 4.688 9.75 4.688 5.438 4.781 5.438 11.25 8.906 17.719 5.438 17.813 5.438 17.813 9.75 14.438 14.438 11.25 16.781" opacity=".5"/></g></g></g><g id="Magic/24x24" opacity=".84" transform="translate(1348.127977, 358.958658) rotate(-313.000000) translate(-1348.127977, -358.958658) translate(1339.127977, 349.958658)"><g id="-g-Magic"><g transform="translate(1.500000, 0.000000)"><polygon id="Shape" fill="#2995CD" points="15 11.25 7.5 18 0 11.25 7.5 0"/><polygon id="Shape" fill="#50B5E9" points="1.95 11.025 7.5 8.775 7.5 15.975"/><polygon id="Shape" fill="#1F709A" points="7.5 8.775 13.05 11.025 7.5 15.975" opacity=".25"/><polygon id="Shape" fill="#FFF" points="7.5 8.775 7.5 2.7 13.05 11.025" opacity=".25"/><polygon id="Shape" fill="#FFF" points="1.95 11.025 7.5 2.7 7.5 8.775" opacity=".5"/><polygon id="Shape" fill="#FFF" points="3.9 10.725 7.5 5.4 11.1 10.725 7.5 13.95" opacity=".5"/></g></g></g><g id="Magic/24x24" opacity=".86" transform="translate(558.470893, 570.489513) rotate(-44.000000) translate(-558.470893, -570.489513) translate(547.970893, 559.989513)"><g id="-g-Magic"><g transform="translate(1.750000, 0.000000)"><polygon id="Shape" fill="#2995CD" points="17.5 13.125 8.75 21 0 13.125 8.75 0"/><polygon id="Shape" fill="#50B5E9" points="2.275 12.863 8.75 10.238 8.75 18.637"/><polygon id="Shape" fill="#1F709A" points="8.75 10.238 15.225 12.863 8.75 18.637" opacity=".25"/><polygon id="Shape" fill="#FFF" points="8.75 10.238 8.75 3.15 15.225 12.863" opacity=".25"/><polygon id="Shape" fill="#FFF" points="2.275 12.863 8.75 3.15 8.75 10.238" opacity=".5"/><polygon id="Shape" fill="#FFF" points="4.55 12.512 8.75 6.3 12.95 12.512 8.75 16.275" opacity=".5"/></g></g></g></g></g></g></svg>