<svg xmlns="http://www.w3.org/2000/svg" xmlns:xlink="http://www.w3.org/1999/xlink" width="24" height="24" version="1.1" viewBox="0 0 24 24"><g id="Icon/Currency/Gem/24x24" fill="none" fill-rule="evenodd" stroke="none" stroke-width="1"><g id="-g-Gem" transform="translate(0.000000, 2.000000)"><polygon id="Shape" fill="#24CC8F" points="0 7 5 0 19 0 24 7 12 20"/><polygon id="Shape" fill="#FFF" points="7 6.8 6 2 12 2" opacity=".25"/><polygon id="Shape" fill="#FFF" points="17 6.8 18 2 12 2" opacity=".25"/><polygon id="Shape" fill="#FFF" points="7 6.8 12 2 17 6.8" opacity=".5"/><polygon id="Shape" fill="#FFF" points="2.6 6.8 6 2 7 6.8" opacity=".5"/><polygon id="Shape" fill="#34313A" points="21.4 6.8 18 2 17 6.8" opacity=".11"/><polygon id="Shape" fill="#34313A" points="2.6 6.8 7 6.8 12 17.1" opacity=".11"/><polygon id="Shape" fill="#FFF" points="21.4 6.8 17 6.8 12 17.1" opacity=".5"/><polygon id="Shape" fill="#FFF" points="7 6.8 17 6.8 12 17.1" opacity=".25"/></g></g></svg>